<svg width="15" height="15" viewBox="0 0 15 15" fill="none" xmlns="http://www.w3.org/2000/svg">
<g clip-path="url(#clip0_115_25)">
<path fill-rule="evenodd" clip-rule="evenodd" d="M7.5 11.875C8.53556 11.875 9.375 11.0356 9.375 10C9.375 8.96444 8.53556 8.125 7.5 8.125C6.46444 8.125 5.625 8.96444 5.625 10C5.625 11.0356 6.46444 11.875 7.5 11.875ZM7.5 10.6894C7.11925 10.6894 6.81056 10.3808 6.81056 10C6.81056 9.61925 7.11925 9.31056 7.5 9.31056C7.88075 9.31056 8.18944 9.61925 8.18944 10C8.18944 10.3808 7.88075 10.6894 7.5 10.6894Z" fill="#46376D"/>
<path d="M6.25 5.9375C6.25 6.45525 5.83027 6.875 5.3125 6.875C4.79473 6.875 4.375 6.45525 4.375 5.9375C4.375 5.41973 4.79473 5 5.3125 5C5.83027 5 6.25 5.41973 6.25 5.9375Z" fill="#46376D"/>
<path d="M9.6875 6.875C10.2053 6.875 10.625 6.45525 10.625 5.9375C10.625 5.41973 10.2053 5 9.6875 5C9.16975 5 8.75 5.41973 8.75 5.9375C8.75 6.45525 9.16975 6.875 9.6875 6.875Z" fill="#46376D"/>
<path fill-rule="evenodd" clip-rule="evenodd" d="M7.5 14.375C11.2969 14.375 14.375 11.2969 14.375 7.5C14.375 3.70304 11.2969 0.625 7.5 0.625C3.70304 0.625 0.625 3.70304 0.625 7.5C0.625 11.2969 3.70304 14.375 7.5 14.375ZM7.5 13.1208C4.39576 13.1208 1.87927 10.6043 1.87927 7.5C1.87927 4.39576 4.39576 1.87927 7.5 1.87927C10.6043 1.87927 13.1208 4.39576 13.1208 7.5C13.1208 10.6043 10.6043 13.1208 7.5 13.1208Z" fill="#46376D"/>
</g>
<defs>
<clipPath id="clip0_115_25">
<rect width="15" height="15" fill="white"/>
</clipPath>
</defs>
</svg>
