<svg width="15" height="15" viewBox="0 0 15 15" fill="none" xmlns="http://www.w3.org/2000/svg">
<rect width="15" height="15" fill="none"/>
<path d="M5.3125 6.875C5.83027 6.875 6.25 6.45525 6.25 5.9375C6.25 5.41973 5.83027 5 5.3125 5C4.79473 5 4.375 5.41973 4.375 5.9375C4.375 6.45525 4.79473 6.875 5.3125 6.875Z" fill="#46376D"/>
<path d="M10.625 5.9375C10.625 6.45525 10.2053 6.875 9.6875 6.875C9.16975 6.875 8.75 6.45525 8.75 5.9375C8.75 5.41973 9.16975 5 9.6875 5C10.2053 5 10.625 5.41973 10.625 5.9375Z" fill="#46376D"/>
<path d="M4.09547 9.934C4.39875 10.0857 4.76639 9.96756 4.92562 9.67069C5.06887 9.44575 5.37822 9.375 5.62498 9.375C5.9045 9.375 6.0115 9.44631 6.21284 9.58056L6.21579 9.58256C6.48129 9.75956 6.84335 10 7.49998 10C8.1566 10 8.51867 9.75956 8.78417 9.58256L8.7871 9.58056C8.98848 9.44631 9.09548 9.375 9.37498 9.375C9.62173 9.375 9.9311 9.44575 10.0744 9.67069C10.2335 9.96756 10.6012 10.0857 10.9045 9.934C11.2054 9.78356 11.3339 9.39287 11.1826 9.09275C11.1532 9.03487 11.1209 8.9815 11.0615 8.90231C10.9912 8.80863 10.8871 8.69056 10.742 8.57444C10.4439 8.33594 9.99554 8.125 9.37498 8.125C8.71835 8.125 8.35629 8.36544 8.09079 8.54244L8.08785 8.54444C7.88648 8.67869 7.77948 8.75 7.49998 8.75C7.22048 8.75 7.11348 8.67869 6.9121 8.54444L6.90917 8.54244C6.64367 8.36544 6.2816 8.125 5.62498 8.125C5.0044 8.125 4.55612 8.33594 4.25798 8.57444C4.11287 8.69056 4.00877 8.80863 3.93845 8.90231C3.87862 8.98213 3.8461 9.03575 3.81663 9.09413C3.66489 9.39606 3.79324 9.78287 4.09547 9.934Z" fill="#46376D"/>
<path fill-rule="evenodd" clip-rule="evenodd" d="M7.5 14.375C11.2969 14.375 14.375 11.2969 14.375 7.5C14.375 3.70304 11.2969 0.625 7.5 0.625C3.70304 0.625 0.625 3.70304 0.625 7.5C0.625 11.2969 3.70304 14.375 7.5 14.375ZM7.5 13.1208C4.39576 13.1208 1.87927 10.6043 1.87927 7.5C1.87927 4.39576 4.39576 1.87927 7.5 1.87927C10.6043 1.87927 13.1208 4.39576 13.1208 7.5C13.1208 10.6043 10.6043 13.1208 7.5 13.1208Z" fill="#46376D"/>
</svg>
