<svg width="15" height="15" viewBox="0 0 15 15" fill="none" xmlns="http://www.w3.org/2000/svg">
<g clip-path="url(#clip0_115_24)">
<path d="M5.55547 9.08839C5.39889 8.78495 5.02694 8.66295 4.72063 8.81614C4.41189 8.97051 4.28675 9.34595 4.44112 9.65464C4.49266 9.75739 4.55829 9.8537 4.62709 9.94545C4.74134 10.0978 4.91381 10.294 5.15658 10.4882C5.65003 10.8829 6.41081 11.2501 7.50013 11.2501C8.58944 11.2501 9.35025 10.8829 9.84369 10.4882C10.0864 10.294 10.2589 10.0978 10.3732 9.94545C10.4423 9.85339 10.5051 9.75707 10.5588 9.65532C10.7117 9.35064 10.5845 8.96857 10.2796 8.81614C9.97331 8.66295 9.60138 8.78495 9.44481 9.08839C9.43619 9.10395 9.31856 9.30751 9.06281 9.51214C8.77506 9.74232 8.28581 10.0001 7.50013 10.0001C6.71444 10.0001 6.22524 9.74232 5.93744 9.51214C5.68169 9.30751 5.56409 9.10395 5.55547 9.08839Z" fill="#46376D"/>
<path d="M4.0625 4.375C3.125 4.375 3.125 5.41667 3.125 5.41667C3.125 6.25 4.6875 7.5 5 7.5C5.3125 7.5 6.875 6.25 6.875 5.41667C6.875 5.41667 6.875 4.375 5.9375 4.375C5 4.375 5 5.625 5 5.625C5 5.625 5 4.375 4.0625 4.375Z" fill="#46376D"/>
<path d="M8.125 5.41667C8.125 5.41667 8.125 4.375 9.0625 4.375C10 4.375 10 5.625 10 5.625C10 5.625 10 4.375 10.9375 4.375C11.875 4.375 11.875 5.41667 11.875 5.41667C11.875 6.25 10.3125 7.5 10 7.5C9.6875 7.5 8.125 6.25 8.125 5.41667Z" fill="#46376D"/>
<path fill-rule="evenodd" clip-rule="evenodd" d="M7.5 14.375C11.2969 14.375 14.375 11.2969 14.375 7.5C14.375 3.70304 11.2969 0.625 7.5 0.625C3.70304 0.625 0.625 3.70304 0.625 7.5C0.625 11.2969 3.70304 14.375 7.5 14.375ZM7.5 13.1208C4.39576 13.1208 1.87927 10.6043 1.87927 7.5C1.87927 4.39576 4.39576 1.87927 7.5 1.87927C10.6043 1.87927 13.1208 4.39576 13.1208 7.5C13.1208 10.6043 10.6043 13.1208 7.5 13.1208Z" fill="#46376D"/>
</g>
<defs>
<clipPath id="clip0_115_24">
<rect width="15" height="15" fill="white"/>
</clipPath>
</defs>
</svg>
