<svg width="15" height="15" viewBox="0 0 15 15" fill="none" xmlns="http://www.w3.org/2000/svg">
<g clip-path="url(#clip0_115_22)">
<path d="M4.65435 4.44099C4.34563 4.28664 3.97023 4.41177 3.81587 4.72049C3.66151 5.0292 3.78665 5.4046 4.09536 5.55897L4.40206 5.71232C4.38429 5.78443 4.37486 5.85983 4.37486 5.93743C4.37486 6.45514 4.79457 6.87489 5.31231 6.87489C5.83005 6.87489 6.24975 6.45514 6.24975 5.93743L6.24976 5.62494C6.24976 5.31246 6.16771 5.19767 5.90428 5.06596L4.65435 4.44099Z" fill="#46376D"/>
<path d="M11.1839 4.72061C11.0295 4.41189 10.6541 4.28676 10.3454 4.44112L9.0955 5.06608C8.83206 5.1978 8.75 5.31258 8.75 5.62506V5.93755C8.75 6.45531 9.16969 6.875 9.68744 6.875C10.2052 6.875 10.6249 6.45531 10.6249 5.93755C10.6249 5.85995 10.6155 5.78455 10.5977 5.71244L10.9044 5.55909C11.2131 5.40473 11.3382 5.02933 11.1839 4.72061Z" fill="#46376D"/>
<path fill-rule="evenodd" clip-rule="evenodd" d="M4.38552 8.93363C4.33986 8.46013 4.72604 8.125 5.12511 8.125H9.8751C10.2742 8.125 10.6604 8.46013 10.6147 8.93363C10.5873 9.21806 10.4799 9.86775 10.0284 10.4585C9.55173 11.0821 8.75048 11.5625 7.5001 11.5625C6.24972 11.5625 5.44846 11.0821 4.97188 10.4585C4.52036 9.86775 4.41295 9.21806 4.38552 8.93363ZM5.7758 9.375C5.823 9.48319 5.88465 9.59431 5.96503 9.69944C6.18878 9.99219 6.61148 10.3125 7.5001 10.3125C8.38873 10.3125 8.81142 9.99219 9.03517 9.69944C9.11554 9.59431 9.17723 9.48319 9.22442 9.375H5.7758Z" fill="#46376D"/>
<path fill-rule="evenodd" clip-rule="evenodd" d="M4.57401 1.27694L1.26536 0.0609664C0.407237 -0.254402 -0.348671 0.719525 0.169773 1.47256L1.73727 3.74932C1.03382 4.82793 0.625 6.11622 0.625 7.5C0.625 11.2969 3.70304 14.375 7.5 14.375C11.2969 14.375 14.375 11.2969 14.375 7.5C14.375 6.11622 13.9662 4.82793 13.2627 3.74932L14.8302 1.47256C15.3487 0.719525 14.5928 -0.254402 13.7346 0.0609664L10.426 1.27694C9.53819 0.858769 8.54638 0.625 7.5 0.625C6.45362 0.625 5.46182 0.858769 4.57401 1.27694ZM3.22717 2.1137L1.75674 1.5733L2.55138 2.72749C2.76273 2.50839 2.98851 2.30328 3.22717 2.1137ZM13.2432 1.5733L12.4486 2.72749C12.2373 2.50839 12.0115 2.30328 11.7728 2.1137L13.2432 1.5733ZM7.5 13.1207C4.39576 13.1207 1.87927 10.6042 1.87927 7.5C1.87927 4.39576 4.39576 1.87927 7.5 1.87927C10.6043 1.87927 13.1208 4.39576 13.1208 7.5C13.1208 10.6042 10.6043 13.1207 7.5 13.1207Z" fill="#46376D"/>
</g>
<defs>
<clipPath id="clip0_115_22">
<rect width="15" height="15" fill="white"/>
</clipPath>
</defs>
</svg>
