<svg width="30" height="30" viewBox="0 0 30 30" fill="none" xmlns="http://www.w3.org/2000/svg">
<path d="M25.9453 17.993L30 17.9871V12.0012L25.9512 11.9895L25.5 12.0012C24.6562 11.9953 24.4219 11.2983 24.4219 10.449C24.4219 10.0273 24.5918 9.64662 24.8672 9.37134L27.7266 6.51308L23.4844 2.27255L20.6191 5.13667C20.3438 5.41195 19.9629 5.58181 19.541 5.58181C18.6914 5.58181 18.0059 4.89653 18 4.05311V0H12V4.03553H11.9941C11.9883 4.88481 11.3027 5.57009 10.4531 5.57009C10.0371 5.57009 9.66211 5.40024 9.38672 5.13667L6.50977 2.26084L2.27344 6.50137L5.13281 9.35963C5.13281 9.35963 5.13281 9.36548 5.12695 9.36548C5.40234 9.64662 5.57227 10.0273 5.57227 10.449C5.57227 11.2925 5.33789 11.9836 4.49414 12.0012H0V17.9988L4.04297 17.9871V17.9988C4.88672 18.0047 5.57227 18.69 5.57227 19.5392C5.57227 19.9551 5.40234 20.33 5.13867 20.6052L2.26758 23.4752L6.50977 27.7157L9.36914 24.8575C9.36914 24.8575 9.375 24.8575 9.375 24.8633C9.65039 24.5939 10.0312 24.4182 10.4531 24.4182C11.2969 24.4182 11.9883 24.6583 12 25.5018C12 25.5018 11.9941 25.941 12 25.941V30L18 29.9883V25.941H18.0059C18.0176 25.0976 18.6973 24.4182 19.541 24.4182C19.9629 24.4182 20.3379 24.5881 20.6191 24.8575H20.625L23.4844 27.7157L27.7266 23.4752L24.8672 20.617C24.5977 20.3417 24.4277 19.961 24.4277 19.5392C24.4219 18.6841 25.1016 17.9988 25.9453 17.993ZM15 20.9742C11.6895 20.9742 9.00586 18.2917 9.00586 14.9824C9.00586 11.6732 11.6895 8.98477 15 8.98477C18.3105 8.98477 20.9941 11.6673 20.9941 14.9824C21 18.2917 18.3105 20.9742 15 20.9742Z" fill="#46376D"/>
</svg>
