<svg width="10" height="10" viewBox="0 0 10 10" fill="none" xmlns="http://www.w3.org/2000/svg">
<path d="M7.77778 0H8.33333V0.555556H8.88889V1.11111H9.44444V1.66667H10V2.22222H9.44444V2.77778H8.88889V3.33333H8.33333V2.77778H7.77778V2.22222H7.22222V1.66667H6.66667V1.11111H7.22222V0.555556H7.77778M5.55556 2.22222H6.66667V2.77778H7.22222V3.33333H7.77778V4.44444H7.22222V5H6.66667V5.55556H6.11111V6.11111H5.55556V6.66667H5V7.22222H4.44444V7.77778H3.88889V8.33333H3.33333V8.88889H2.77778V9.44444H2.22222V10H0V7.77778H0.555556V7.22222H1.11111V6.66667H1.66667V6.11111H2.22222V5.55556H2.77778V5H3.33333V4.44444H3.88889V3.88889H4.44444V3.33333H5V2.77778H5.55556" fill="#46376D"/>
</svg>
