<svg width="9" height="17" viewBox="0 0 9 17" fill="none" xmlns="http://www.w3.org/2000/svg">
<path d="M0.254407 4.75565C0.0981811 4.59938 0.0104182 4.38746 0.0104182 4.16649C0.0104182 3.94552 0.0981811 3.73359 0.254407 3.57732L3.58774 0.243989C3.74401 0.0877627 3.95594 0 4.17691 0C4.39788 0 4.6098 0.0877627 4.76607 0.243989L8.09941 3.57732C8.179 3.65419 8.24248 3.74615 8.28616 3.84782C8.32983 3.94949 8.35282 4.05884 8.35378 4.16949C8.35474 4.28014 8.33366 4.38987 8.29176 4.49228C8.24986 4.5947 8.18798 4.68774 8.10974 4.76598C8.03149 4.84423 7.93845 4.90611 7.83603 4.94801C7.73362 4.98991 7.62389 5.01099 7.51324 5.01003C7.40259 5.00907 7.29324 4.98608 7.19157 4.94241C7.0899 4.89873 6.99795 4.83525 6.92107 4.75565L4.17691 2.01149L1.43274 4.75565C1.27647 4.91188 1.06454 4.99964 0.843574 4.99964C0.622603 4.99964 0.41068 4.91188 0.254407 4.75565ZM0.254407 13.089L3.58774 16.4223C3.74401 16.5785 3.95594 16.6663 4.17691 16.6663C4.39788 16.6663 4.6098 16.5785 4.76607 16.4223L8.09941 13.089C8.25121 12.9318 8.3352 12.7213 8.3333 12.5028C8.3314 12.2843 8.24376 12.0753 8.08926 11.9208C7.93475 11.7663 7.72574 11.6787 7.50724 11.6768C7.28874 11.6749 7.07824 11.7589 6.92107 11.9107L4.17691 14.6548L1.43274 11.9107C1.35587 11.8311 1.26391 11.7676 1.16224 11.7239C1.06057 11.6802 0.951224 11.6572 0.840575 11.6563C0.729925 11.6553 0.620192 11.6764 0.517778 11.7183C0.415365 11.7602 0.322321 11.8221 0.244078 11.9003C0.165834 11.9786 0.103956 12.0716 0.0620553 12.174C0.0201545 12.2764 -0.000930049 12.3862 3.14642e-05 12.4968C0.000992978 12.6075 0.0239815 12.7168 0.0676557 12.8185C0.11133 12.9202 0.174815 13.0121 0.254407 13.089Z" fill="black"/>
</svg>
